<svg width="19" height="20" viewBox="0 0 19 20" fill="none" xmlns="http://www.w3.org/2000/svg">
<g id="Document">
<path id="Document_2" fill-rule="evenodd" clip-rule="evenodd" d="M5.302 0H13.6989C16.7937 0 18.5169 1.78 18.5169 4.83V15.16C18.5169 18.26 16.7937 20 13.6989 20H5.302C2.25626 20 0.48291 18.26 0.48291 15.16V4.83C0.48291 1.78 2.25626 0 5.302 0ZM5.57252 4.66V4.65H8.56717C8.99898 4.65 9.34964 5 9.34964 5.429C9.34964 5.87 8.99898 6.22 8.56717 6.22H5.57252C5.1407 6.22 4.79104 5.87 4.79104 5.44C4.79104 5.01 5.1407 4.66 5.57252 4.66ZM5.57252 10.74H13.4273C13.8582 10.74 14.2088 10.39 14.2088 9.96C14.2088 9.53 13.8582 9.179 13.4273 9.179H5.57252C5.1407 9.179 4.79104 9.53 4.79104 9.96C4.79104 10.39 5.1407 10.74 5.57252 10.74ZM5.57252 15.31H13.4273C13.8271 15.27 14.1287 14.929 14.1287 14.53C14.1287 14.12 13.8271 13.78 13.4273 13.74H5.57252C5.27195 13.71 4.9814 13.85 4.8211 14.11C4.66079 14.36 4.66079 14.69 4.8211 14.95C4.9814 15.2 5.27195 15.35 5.57252 15.31Z" fill="#4838D1"/>
</g>
</svg>
