<svg width="21" height="20" viewBox="0 0 21 20" fill="none" xmlns="http://www.w3.org/2000/svg">
<g id="Home">
<path id="Home_2" fill-rule="evenodd" clip-rule="evenodd" d="M18.8551 5.6593C19.5264 6.1783 19.9382 6.9493 20.0083 7.7883L20.0183 7.9893V16.0983C20.0183 18.1883 18.3642 19.8883 16.2913 19.9983H14.2975C13.3447 19.9793 12.5743 19.2393 12.5042 18.3093L12.4941 18.1683V15.3093C12.4941 14.9983 12.2627 14.7393 11.9531 14.6883L11.8629 14.6783H9.1869C8.86729 14.6883 8.6068 14.9183 8.56673 15.2183L8.55671 15.3093V18.1593C8.55671 18.2183 8.54569 18.2883 8.53667 18.3383L8.52665 18.3593L8.51563 18.4283C8.39641 19.2793 7.69508 19.9283 6.82344 19.9893L6.69319 19.9983H4.89981C2.80586 19.9983 1.09263 18.3593 0.982422 16.2983V7.9893C0.991439 7.1383 1.36314 6.3483 1.98431 5.7983L8.22608 0.788301C9.49848 -0.220699 11.2818 -0.260699 12.5933 0.668301L12.7546 0.788301L18.8551 5.6593ZM18.6147 16.2583L18.6257 16.0983V7.9983C18.6147 7.5693 18.4353 7.1683 18.1248 6.8693L17.9945 6.7583L11.883 1.8783C11.1215 1.2683 10.0395 1.2393 9.23799 1.7683L9.08671 1.8783L2.99522 6.7793C2.64556 7.0383 2.43516 7.4283 2.38507 7.8383L2.37405 7.9983V16.0983C2.37405 17.4283 3.41601 18.5183 4.73951 18.5983H6.69319C6.91361 18.5983 7.10397 18.4493 7.13302 18.2393L7.15406 18.0593L7.16408 18.0083V15.3093C7.16408 14.2393 7.98563 13.3693 9.03761 13.2883H11.8629C12.934 13.2883 13.8056 14.1093 13.8868 15.1593V18.1683C13.8868 18.3783 14.037 18.5593 14.2374 18.5983H16.0999C17.4425 18.5983 18.5345 17.5693 18.6147 16.2583Z" fill="#6A6A8B"/>
</g>
</svg>
